<svg width="19" height="18" viewBox="0 0 19 18" fill="none" xmlns="http://www.w3.org/2000/svg">
<path fill-rule="evenodd" clip-rule="evenodd" d="M4.54925 0C4.9653 0 5.30258 0.349997 5.30258 0.781741V2.51995C8.14286 2.25746 11 2.25746 13.8403 2.51995V0.781741C13.8403 0.349997 14.1776 0 14.5936 0C15.0097 0 15.347 0.349997 15.347 0.781741V2.67505C16.8466 2.89509 18.0314 4.126 18.2319 5.69612L18.3189 6.3767C18.6845 9.23926 18.653 12.1414 18.2251 14.9947C18.0132 16.4081 16.9066 17.4938 15.5348 17.6341L14.3365 17.7568C11.1675 18.0811 7.97536 18.0811 4.80631 17.7568L3.60802 17.6341C2.23621 17.4938 1.12967 16.4081 0.917719 14.9947C0.48987 12.1414 0.45829 9.23926 0.823941 6.37671L0.910877 5.69612C1.11144 4.12598 2.29622 2.89506 3.79592 2.67504V0.781741C3.79592 0.349997 4.1332 0 4.54925 0ZM4.99639 4.12009C8.03902 3.80872 11.1038 3.80872 14.1464 4.12009L15.0559 4.21316C15.9265 4.30226 16.6234 5.00162 16.7384 5.90156L16.8253 6.58215C16.8557 6.81991 16.8831 7.05797 16.9077 7.29625H2.23509C2.25968 7.05797 2.28716 6.81992 2.31753 6.58215L2.40447 5.90157C2.51942 5.00162 3.21633 4.30226 4.08692 4.21316L4.99639 4.12009ZM2.11533 8.85973C2.01671 10.8277 2.11387 12.8031 2.40646 14.7543C2.51277 15.4633 3.0678 16.0078 3.75588 16.0782L4.95418 16.2008C8.02489 16.5151 11.1179 16.5151 14.1886 16.2008L15.3869 16.0782C16.075 16.0078 16.6301 15.4633 16.7364 14.7543C17.0289 12.8031 17.1261 10.8277 17.0275 8.85973H2.11533Z" fill="white" fill-opacity="0.5"/>
</svg>
