<svg width="19" height="19" viewBox="0 0 19 19" fill="none" xmlns="http://www.w3.org/2000/svg">
<path fill-rule="evenodd" clip-rule="evenodd" d="M4.89385 0.820557C5.3099 0.820557 5.64718 1.17055 5.64718 1.6023V3.3405C8.48746 3.07802 11.3446 3.07802 14.1849 3.34051V1.6023C14.1849 1.17055 14.5222 0.820557 14.9382 0.820557C15.3543 0.820557 15.6916 1.17055 15.6916 1.6023V3.49561C17.1912 3.71565 18.376 4.94655 18.5765 6.51667L18.6635 7.19726C19.0291 10.0598 18.9975 12.962 18.5697 15.8152C18.3578 17.2287 17.2512 18.3143 15.8794 18.4547L14.6811 18.5773C11.5121 18.9016 8.31996 18.9016 5.15091 18.5773L3.95261 18.4547C2.58081 18.3143 1.47426 17.2287 1.26232 15.8152C0.834467 12.962 0.802887 10.0598 1.16854 7.19726L1.25547 6.51667C1.45604 4.94654 2.64082 3.71562 4.14052 3.4956V1.6023C4.14052 1.17055 4.4778 0.820557 4.89385 0.820557ZM5.34099 4.94065C8.38362 4.62928 11.4484 4.62928 14.491 4.94065L15.4005 5.03372C16.2711 5.12281 16.968 5.82218 17.083 6.72212L17.1699 7.40271C17.2003 7.64047 17.2277 7.87852 17.2523 8.11681H2.57969C2.60428 7.87852 2.63176 7.64047 2.66213 7.40271L2.74907 6.72212C2.86402 5.82218 3.56092 5.12281 4.43152 5.03372L5.34099 4.94065ZM2.45993 9.68029C2.36131 11.6483 2.45847 13.6236 2.75106 15.5748C2.85737 16.2838 3.4124 16.8283 4.10048 16.8988L5.29877 17.0214C8.36948 17.3356 11.4625 17.3356 14.5332 17.0214L15.7315 16.8988C16.4196 16.8283 16.9747 16.2838 17.081 15.5748C17.3735 13.6236 17.4707 11.6483 17.3721 9.68029H2.45993Z" fill="black" fill-opacity="0.5"/>
</svg>
